<svg width="15" height="15" viewBox="0 0 15 15" fill="none" xmlns="http://www.w3.org/2000/svg">
<path d="M15 1.40625V9.84375C15 10.6201 14.3701 11.25 13.5938 11.25H12.1875V5.15625C12.1875 3.86426 11.1357 2.8125 9.84375 2.8125H3.75V1.40625C3.75 0.629883 4.37988 0 5.15625 0H13.5938C14.3701 0 15 0.629883 15 1.40625ZM11.25 5.15625V13.5938C11.25 14.3701 10.6201 15 9.84375 15H1.40625C0.629883 15 0 14.3701 0 13.5938V5.15625C0 4.37988 0.629883 3.75 1.40625 3.75H9.84375C10.6201 3.75 11.25 4.37988 11.25 5.15625ZM9.25781 5.97656C9.25781 5.7832 9.09961 5.625 8.90625 5.625H2.22656C2.0332 5.625 1.875 5.7832 1.875 5.97656V7.5H9.25781V5.97656Z" fill="#E5DBFF"/>
</svg>
