<svg width="12" height="11" viewBox="0 0 12 11" fill="none" xmlns="http://www.w3.org/2000/svg">
<path d="M6 0C2.68548 0 0 2.46169 0 5.5C0 8.53831 2.68548 11 6 11C9.31452 11 12 8.53831 12 5.5C12 2.46169 9.31452 0 6 0ZM7.38145 7.76431L5.24758 6.34274C5.17258 6.29173 5.12903 6.21189 5.12903 6.12762V2.39516C5.12903 2.24879 5.25968 2.12903 5.41935 2.12903H6.58065C6.74032 2.12903 6.87097 2.24879 6.87097 2.39516V5.44899L8.40726 6.47359C8.5379 6.56008 8.56452 6.72641 8.47016 6.84617L7.7879 7.70665C7.69355 7.82419 7.5121 7.85081 7.38145 7.76431Z" fill="#6F46A6"/>
</svg>
