<svg width="13" height="13" viewBox="0 0 13 13" fill="none" xmlns="http://www.w3.org/2000/svg">
<path d="M0 11.7812C0 12.4541 0.623884 13 1.39286 13H11.6071C12.3761 13 13 12.4541 13 11.7812V4.875H0V11.7812ZM9.28571 6.80469C9.28571 6.63711 9.44241 6.5 9.63393 6.5H10.7946C10.9862 6.5 11.1429 6.63711 11.1429 6.80469V7.82031C11.1429 7.98789 10.9862 8.125 10.7946 8.125H9.63393C9.44241 8.125 9.28571 7.98789 9.28571 7.82031V6.80469ZM9.28571 10.0547C9.28571 9.88711 9.44241 9.75 9.63393 9.75H10.7946C10.9862 9.75 11.1429 9.88711 11.1429 10.0547V11.0703C11.1429 11.2379 10.9862 11.375 10.7946 11.375H9.63393C9.44241 11.375 9.28571 11.2379 9.28571 11.0703V10.0547ZM5.57143 6.80469C5.57143 6.63711 5.72812 6.5 5.91964 6.5H7.08036C7.27187 6.5 7.42857 6.63711 7.42857 6.80469V7.82031C7.42857 7.98789 7.27187 8.125 7.08036 8.125H5.91964C5.72812 8.125 5.57143 7.98789 5.57143 7.82031V6.80469ZM5.57143 10.0547C5.57143 9.88711 5.72812 9.75 5.91964 9.75H7.08036C7.27187 9.75 7.42857 9.88711 7.42857 10.0547V11.0703C7.42857 11.2379 7.27187 11.375 7.08036 11.375H5.91964C5.72812 11.375 5.57143 11.2379 5.57143 11.0703V10.0547ZM1.85714 6.80469C1.85714 6.63711 2.01384 6.5 2.20536 6.5H3.36607C3.55759 6.5 3.71429 6.63711 3.71429 6.80469V7.82031C3.71429 7.98789 3.55759 8.125 3.36607 8.125H2.20536C2.01384 8.125 1.85714 7.98789 1.85714 7.82031V6.80469ZM1.85714 10.0547C1.85714 9.88711 2.01384 9.75 2.20536 9.75H3.36607C3.55759 9.75 3.71429 9.88711 3.71429 10.0547V11.0703C3.71429 11.2379 3.55759 11.375 3.36607 11.375H2.20536C2.01384 11.375 1.85714 11.2379 1.85714 11.0703V10.0547ZM11.6071 1.625H10.2143V0.40625C10.2143 0.182812 10.0054 0 9.75 0H8.82143C8.56607 0 8.35714 0.182812 8.35714 0.40625V1.625H4.64286V0.40625C4.64286 0.182812 4.43393 0 4.17857 0H3.25C2.99464 0 2.78571 0.182812 2.78571 0.40625V1.625H1.39286C0.623884 1.625 0 2.1709 0 2.84375V4.0625H13V2.84375C13 2.1709 12.3761 1.625 11.6071 1.625Z" fill="#E5DBFF"/>
</svg>
