<svg width="16" height="13" viewBox="0 0 16 13" fill="none" xmlns="http://www.w3.org/2000/svg">
<path d="M7.78787 3.37254L2.66688 7.77939V12.5357C2.66688 12.6588 2.7137 12.7769 2.79704 12.864C2.88038 12.9511 2.99342 13 3.11129 13L6.22382 12.9916C6.3413 12.991 6.45377 12.9418 6.53663 12.8548C6.6195 12.7677 6.66601 12.65 6.66601 12.5272V9.74964C6.66601 9.62649 6.71283 9.50838 6.79618 9.4213C6.87952 9.33422 6.99256 9.2853 7.11042 9.2853H8.88806C9.00593 9.2853 9.11897 9.33422 9.20231 9.4213C9.28565 9.50838 9.33247 9.62649 9.33247 9.74964V12.5252C9.33229 12.5863 9.34365 12.6468 9.3659 12.7034C9.38815 12.7599 9.42086 12.8112 9.46215 12.8545C9.50343 12.8978 9.55249 12.9321 9.60649 12.9555C9.6605 12.9789 9.71841 12.991 9.77688 12.991L12.8883 13C13.0062 13 13.1192 12.9511 13.2026 12.864C13.2859 12.7769 13.3327 12.6588 13.3327 12.5357V7.7762L8.21284 3.37254C8.15265 3.32185 8.07767 3.2942 8.00035 3.2942C7.92304 3.2942 7.84806 3.32185 7.78787 3.37254ZM15.877 6.36781L13.5549 4.36796V0.348253C13.5549 0.255891 13.5198 0.167311 13.4573 0.102001C13.3948 0.0366909 13.31 0 13.2216 0H11.6662C11.5778 0 11.493 0.0366909 11.4305 0.102001C11.368 0.167311 11.3329 0.255891 11.3329 0.348253V2.45547L8.84612 0.317781C8.60748 0.112596 8.30802 0.000410168 7.99897 0.000410168C7.68991 0.000410168 7.39045 0.112596 7.15181 0.317781L0.120963 6.36781C0.0872117 6.39696 0.0592882 6.43276 0.0387875 6.47319C0.0182869 6.51362 0.00561089 6.55787 0.00148382 6.60342C-0.00264326 6.64896 0.00185949 6.69491 0.0147348 6.73864C0.02761 6.78237 0.0486055 6.82302 0.0765215 6.85826L0.7848 7.75792C0.81264 7.79329 0.846883 7.82257 0.88557 7.8441C0.924256 7.86562 0.966625 7.87897 1.01025 7.88336C1.05388 7.88775 1.09791 7.88311 1.13982 7.86971C1.18173 7.8563 1.22069 7.83439 1.25449 7.80522L7.78787 2.18268C7.84806 2.13198 7.92304 2.10434 8.00035 2.10434C8.07767 2.10434 8.15265 2.13198 8.21284 2.18268L14.7465 7.80522C14.7802 7.83439 14.8191 7.85633 14.861 7.86978C14.9028 7.88323 14.9468 7.88794 14.9904 7.88363C15.034 7.87931 15.0764 7.86607 15.1151 7.84465C15.1537 7.82323 15.188 7.79405 15.2159 7.75879L15.9242 6.85914C15.9521 6.82369 15.973 6.78283 15.9857 6.73891C15.9984 6.69499 16.0027 6.64887 15.9983 6.60322C15.9939 6.55756 15.981 6.51326 15.9601 6.47286C15.9393 6.43246 15.911 6.39676 15.877 6.36781Z" fill="#E5DBFF"/>
</svg>
