<svg width="13" height="9" viewBox="0 0 13 9" fill="none" xmlns="http://www.w3.org/2000/svg">
<path d="M2.88889 2.25H10.1111V6.75H2.88889V2.25ZM11.9167 4.5C11.9167 5.12133 12.4017 5.625 13 5.625V7.875C13 8.49633 12.515 9 11.9167 9H1.08333C0.485017 9 0 8.49633 0 7.875V5.625C0.598316 5.625 1.08333 5.12133 1.08333 4.5C1.08333 3.87867 0.598316 3.375 0 3.375V1.125C0 0.503672 0.485017 0 1.08333 0H11.9167C12.515 0 13 0.503672 13 1.125V3.375C12.4017 3.375 11.9167 3.87867 11.9167 4.5ZM10.8333 2.0625C10.8333 1.75184 10.5908 1.5 10.2917 1.5H2.70833C2.40918 1.5 2.16667 1.75184 2.16667 2.0625V6.9375C2.16667 7.24816 2.40918 7.5 2.70833 7.5H10.2917C10.5908 7.5 10.8333 7.24816 10.8333 6.9375V2.0625Z" fill="#6F46A6"/>
</svg>
